<svg width="6095" height="5543" viewBox="0 0 6095 5543" fill="none" xmlns="http://www.w3.org/2000/svg">
<g filter="url(#filter0_d_467_338)">
<path fill-rule="evenodd" clip-rule="evenodd" d="M3048.81 1415.01L3048.75 1414.87L225.305 2626.91L225.971 2628.51H725.545L3048.81 1631.19L5365.73 2625.79H5869.69L4371.22 1982.53V1442.53H4175.05V1898.31L3048.87 1414.87L3048.81 1415.01Z" fill="#1A554F"/>
</g>
<path d="M840.563 3693.97H5254.45V3794.59H840.563V3693.97Z" fill="#1A554F"/>
<path d="M411.429 3860.74H5683.58V3961.36H411.429V3860.74Z" fill="#1A554F"/>
<path d="M225.305 4027.51H5869.69V4128.13H225.305V4027.51Z" fill="#1A554F"/>
<path d="M2723.75 2179.27C2723.75 2022.45 2848.89 1895.33 3003.27 1895.33H3016.96V2297.59H2723.75V2179.27Z" fill="#B89F4D"/>
<path d="M2723.75 2332.76H3016.96V2679.5H2723.75V2332.76Z" fill="#B89F4D"/>
<path d="M3078.04 1895.33H3091.73C3246.11 1895.33 3371.25 2022.45 3371.25 2179.27V2297.59H3078.04V1895.33Z" fill="#B89F4D"/>
<path d="M3078.04 2332.76H3371.25V2679.5H3078.04V2332.76Z" fill="#B89F4D"/>
<g filter="url(#filter1_d_467_338)">
<path d="M1355.28 3166.26C1355.28 3210.3 1347.03 3248.49 1330.52 3280.84C1314.01 3313.19 1292.52 3339.71 1266.05 3360.39C1239.35 3381.06 1209.36 3396.51 1176.1 3406.73C1142.83 3416.94 1108.48 3422.05 1073.03 3422.05H858.882V3396.15C865.923 3396.15 875.028 3395.54 886.197 3394.32C897.608 3392.86 905.135 3391.28 908.777 3389.58C916.061 3386.42 921.281 3381.79 924.437 3375.71C927.836 3369.39 929.536 3361.85 929.536 3353.09V2979.44C929.536 2971.17 928.079 2963.75 925.166 2957.18C922.495 2950.61 917.032 2945.38 908.777 2941.49C901.25 2937.84 893.116 2935.17 884.376 2933.46C875.635 2931.76 868.108 2930.67 861.795 2930.18V2904.27H1087.6C1118.68 2904.27 1149.27 2909.14 1179.37 2918.87C1209.48 2928.36 1235.7 2941.25 1258.04 2957.55C1288.39 2979.2 1312.19 3007.54 1329.42 3042.57C1346.66 3077.6 1355.28 3118.83 1355.28 3166.26ZM1266.05 3165.9C1266.05 3131.11 1261.44 3099.73 1252.21 3071.76C1242.99 3043.54 1229.51 3018.97 1211.79 2998.05C1195.04 2978.1 1174.4 2962.41 1149.87 2950.98C1125.6 2939.55 1098.52 2933.83 1068.66 2933.83C1058.7 2933.83 1047.41 2934.07 1034.79 2934.56C1022.41 2934.8 1013.18 2935.05 1007.11 2935.29V3333.38C1007.11 3355.52 1013.54 3370.85 1026.41 3379.36C1039.28 3387.88 1059.07 3392.13 1085.78 3392.13C1116.61 3392.13 1143.56 3386.66 1166.63 3375.71C1189.69 3364.77 1208.39 3349.56 1222.71 3330.1C1237.77 3309.67 1248.69 3286.07 1255.49 3259.31C1262.53 3232.31 1266.05 3201.17 1266.05 3165.9Z" fill="#1A554F"/>
<path d="M1740.6 3184.51C1751.53 3196.67 1759.54 3210.05 1764.64 3224.65C1769.98 3239 1772.65 3255.78 1772.65 3275C1772.65 3320.74 1755.78 3358.44 1722.03 3388.12C1688.28 3417.8 1646.4 3432.64 1596.38 3432.64C1573.31 3432.64 1550.25 3429.11 1527.18 3422.05C1504.12 3414.76 1484.21 3406 1467.45 3395.78L1451.79 3422.42H1422.66L1417.56 3245.08H1447.06C1453.13 3266.97 1460.17 3286.8 1468.18 3304.56C1476.44 3322.07 1487.24 3338.49 1500.6 3353.82C1513.22 3368.17 1527.91 3379.6 1544.66 3388.12C1561.66 3396.63 1581.33 3400.89 1603.66 3400.89C1620.42 3400.89 1634.98 3398.7 1647.37 3394.32C1659.99 3389.94 1670.19 3383.74 1677.96 3375.71C1685.73 3367.68 1691.44 3358.32 1695.08 3347.62C1698.96 3336.67 1700.9 3324.14 1700.9 3310.03C1700.9 3289.35 1695.08 3270.14 1683.42 3252.38C1671.77 3234.38 1654.41 3220.76 1631.34 3211.51C1615.56 3205.19 1597.47 3198.25 1577.08 3190.71C1556.68 3182.93 1539.08 3175.63 1524.27 3168.82C1495.13 3155.68 1472.43 3138.53 1456.16 3117.37C1440.14 3095.96 1432.13 3068.11 1432.13 3033.81C1432.13 3014.11 1436.13 2995.74 1444.15 2978.71C1452.16 2961.68 1463.57 2946.48 1478.38 2933.1C1492.46 2920.45 1509.09 2910.6 1528.28 2903.54C1547.46 2896.25 1567.49 2892.6 1588.37 2892.6C1612.16 2892.6 1633.41 2896.25 1652.1 2903.54C1671.04 2910.84 1688.28 2919.36 1703.82 2929.09L1718.75 2904.27H1747.89L1750.8 3076.14H1721.3C1715.96 3056.43 1709.89 3037.58 1703.09 3019.58C1696.53 3001.58 1687.91 2985.28 1677.23 2970.68C1666.79 2956.57 1654.04 2945.38 1638.99 2937.11C1623.94 2928.6 1605.48 2924.34 1583.63 2924.34C1560.57 2924.34 1540.9 2931.76 1524.63 2946.6C1508.37 2961.44 1500.23 2979.56 1500.23 3000.97C1500.23 3023.35 1505.45 3041.96 1515.89 3056.8C1526.33 3071.39 1541.51 3083.43 1561.42 3092.92C1579.14 3101.44 1596.5 3108.86 1613.5 3115.18C1630.74 3121.26 1647.37 3127.83 1663.39 3134.88C1677.96 3141.21 1691.92 3148.39 1705.27 3156.41C1718.87 3164.44 1730.65 3173.81 1740.6 3184.51Z" fill="#1A554F"/>
<path d="M2459.89 3422.05H2231.54V3396.15C2239.79 3395.9 2250.36 3395.05 2263.22 3393.59C2276.33 3392.13 2285.32 3390.06 2290.17 3387.39C2297.7 3382.77 2303.16 3377.54 2306.56 3371.7C2310.2 3365.62 2312.03 3358.08 2312.03 3349.08V2972.51H2306.56L2130.29 3413.66H2112.08L1944.19 2963.39H1939.45V3272.45C1939.45 3302.37 1941.27 3325.11 1944.92 3340.68C1948.8 3356.25 1954.63 3367.44 1962.4 3374.25C1967.74 3379.36 1978.79 3384.23 1995.54 3388.85C2012.29 3393.47 2023.22 3395.9 2028.32 3396.15V3422.05H1819.63V3396.15C1830.56 3395.17 1841.97 3393.35 1853.87 3390.67C1866.01 3388 1875.35 3383.98 1881.91 3378.63C1890.41 3371.82 1896.23 3361.36 1899.39 3347.25C1902.55 3333.14 1904.13 3309.55 1904.13 3276.46V3011.55C1904.13 2996.23 1902.3 2983.7 1898.66 2973.97C1895.02 2964.24 1889.8 2956.33 1883 2950.25C1875.48 2943.68 1866.25 2938.82 1855.32 2935.65C1844.4 2932.49 1833.59 2930.67 1822.91 2930.18V2904.27H1999.18L2147.04 3292.52L2273.42 2967.76C2278.03 2955.84 2281.92 2943.44 2285.08 2930.55C2288.47 2917.41 2290.3 2908.65 2290.54 2904.27H2459.16V2930.18C2452.36 2930.42 2443.62 2931.52 2432.94 2933.46C2422.5 2935.41 2414.85 2937.24 2409.99 2938.94C2401.74 2941.86 2396.16 2946.72 2393.24 2953.53C2390.33 2960.35 2388.87 2967.76 2388.87 2975.79V3349.08C2388.87 3357.59 2390.33 3364.77 2393.24 3370.6C2396.16 3376.44 2401.74 3381.55 2409.99 3385.93C2414.37 3388.36 2422.13 3390.67 2433.3 3392.86C2444.47 3394.81 2453.33 3395.9 2459.89 3396.15V3422.05Z" fill="#1A554F"/>
<path d="M3209.77 3215.16C3203.94 3215.89 3196.05 3217.11 3186.1 3218.81C3176.39 3220.27 3168.49 3222.46 3162.43 3225.38C3155.14 3229.03 3149.92 3234.26 3146.76 3241.07C3143.85 3247.64 3142.39 3255.42 3142.39 3264.42V3304.56C3142.39 3333.75 3142.52 3353.45 3142.76 3363.67C3143.24 3373.89 3143.73 3382.28 3144.22 3388.85C3111.92 3403.44 3079.75 3414.63 3047.7 3422.42C3015.65 3430.2 2984.21 3434.09 2953.38 3434.09C2920.36 3434.09 2888.55 3427.89 2857.96 3415.49C2827.36 3403.08 2800.66 3385.44 2777.83 3362.58C2754.77 3339.47 2736.44 3311.37 2722.84 3278.29C2709.24 3245.2 2702.44 3208.23 2702.44 3167.36C2702.44 3127.95 2708.88 3091.46 2721.75 3057.89C2734.86 3024.08 2753.31 2994.77 2777.1 2969.95C2800.17 2945.63 2827.61 2926.78 2859.41 2913.4C2891.46 2899.77 2925.7 2892.96 2962.12 2892.96C2991.25 2892.96 3016.62 2896.49 3038.23 2903.54C3059.84 2910.6 3078.9 2919.11 3095.41 2929.09L3110.34 2904.27H3139.48L3142.76 3085.26H3112.89C3107.8 3065.31 3101.48 3045.73 3093.96 3026.51C3086.43 3007.05 3076.72 2989.66 3064.82 2974.33C3052.92 2959.01 3038.36 2946.84 3021.12 2937.84C3004.12 2928.6 2983.73 2923.98 2959.93 2923.98C2933.95 2923.98 2910.77 2929.33 2890.37 2940.03C2869.98 2950.49 2852.25 2966.18 2837.2 2987.1C2822.39 3007.29 2810.98 3032.47 2802.96 3062.64C2794.95 3092.8 2790.94 3126.49 2790.94 3163.71C2790.94 3196.55 2794.83 3227.57 2802.6 3256.76C2810.61 3285.71 2822.14 3310.76 2837.2 3331.93C2852.25 3353.58 2871.07 3370.6 2893.65 3383.01C2916.23 3395.42 2941.84 3401.62 2970.49 3401.62C2991.86 3401.62 3011.28 3398.34 3028.76 3391.77C3046.49 3385.2 3058.99 3378.27 3066.28 3370.97C3068.22 3358.32 3069.19 3345.55 3069.19 3332.66C3069.43 3319.76 3069.55 3308.82 3069.55 3299.81V3271.35C3069.55 3261.14 3068.1 3252.14 3065.18 3244.35C3062.51 3236.32 3056.81 3230.49 3048.07 3226.84C3040.05 3223.19 3029.13 3220.51 3015.29 3218.81C3001.69 3216.86 2991.01 3215.65 2983.24 3215.16V3188.52H3209.77V3215.16Z" fill="#1A554F"/>
<path d="M3754.24 3422.05H3615.12C3584.29 3373.64 3556.36 3331.8 3531.36 3296.53C3506.59 3261.26 3479.64 3224.89 3450.5 3187.43H3397.7V3351.63C3397.7 3360.14 3399.03 3367.68 3401.7 3374.25C3404.37 3380.58 3410.08 3385.44 3418.82 3388.85C3423.19 3390.55 3430.84 3392.13 3441.76 3393.59C3452.69 3395.05 3461.92 3395.9 3469.44 3396.15V3422.05H3250.92V3396.15C3256.75 3395.66 3265.13 3394.81 3276.05 3393.59C3287.22 3392.38 3294.99 3390.79 3299.36 3388.85C3306.65 3385.69 3311.87 3381.06 3315.02 3374.98C3318.42 3368.9 3320.12 3361.12 3320.12 3351.63V2977.25C3320.12 2968.74 3318.91 2961.2 3316.48 2954.63C3314.05 2948.06 3308.35 2943.07 3299.36 2939.67C3293.29 2937.48 3285.4 2935.53 3275.69 2933.83C3265.98 2931.88 3257.72 2930.67 3250.92 2930.18V2904.27H3489.47C3511.33 2904.27 3531.84 2906.58 3551.02 2911.21C3570.2 2915.59 3587.56 2922.76 3603.1 2932.73C3618.16 2942.47 3630.17 2955.24 3639.16 2971.05C3648.14 2986.62 3652.63 3005.47 3652.63 3027.61C3652.63 3047.55 3649.6 3065.19 3643.53 3080.52C3637.46 3095.84 3628.48 3109.1 3616.58 3120.29C3605.65 3130.75 3592.54 3139.87 3577.24 3147.66C3561.95 3155.2 3545.07 3161.64 3526.62 3166.99C3552.11 3200.81 3573.24 3229.27 3589.99 3252.38C3606.99 3275.49 3627.75 3303.59 3652.27 3336.67C3662.95 3351.26 3672.54 3362.09 3681.04 3369.14C3689.78 3375.96 3698.4 3381.55 3706.9 3385.93C3713.21 3389.09 3721.1 3391.52 3730.57 3393.23C3740.04 3394.93 3747.93 3395.9 3754.24 3396.15V3422.05ZM3562.68 3036C3562.68 3004.62 3553.69 2979.81 3535.73 2961.56C3517.76 2943.07 3492.39 2933.83 3459.61 2933.83H3397.7V3156.05H3445.41C3478.91 3156.05 3506.83 3145.34 3529.17 3123.94C3551.51 3102.29 3562.68 3072.97 3562.68 3036Z" fill="#1A554F"/>
<path d="M4192.01 2965.58C4214.83 2989.41 4232.68 3018.24 4245.55 3052.05C4258.41 3085.62 4264.85 3122.84 4264.85 3163.71C4264.85 3204.82 4258.29 3242.16 4245.18 3275.73C4232.07 3309.3 4213.86 3337.89 4190.55 3361.48C4167.97 3384.83 4141.75 3402.84 4111.89 3415.49C4082.02 3428.13 4050.21 3434.46 4016.47 3434.46C3980.53 3434.46 3947.27 3427.77 3916.68 3414.39C3886.33 3400.77 3860.23 3381.92 3838.37 3357.83C3816.52 3334.24 3799.28 3305.65 3786.66 3272.08C3774.27 3238.27 3768.08 3202.15 3768.08 3163.71C3768.08 3121.63 3774.64 3084.16 3787.75 3051.32C3800.86 3018.24 3818.95 2989.66 3842.02 2965.58C3864.84 2941.74 3891.3 2923.49 3921.41 2910.84C3951.76 2898.19 3983.45 2891.87 4016.47 2891.87C4050.7 2891.87 4082.99 2898.31 4113.34 2911.21C4143.69 2924.1 4169.91 2942.22 4192.01 2965.58ZM4137.74 3332.66C4151.34 3310.52 4161.17 3285.46 4167.24 3257.49C4173.56 3229.51 4176.71 3198.25 4176.71 3163.71C4176.71 3128.19 4173.19 3095.6 4166.15 3065.92C4159.35 3036.24 4149.28 3010.94 4135.92 2990.02C4122.57 2969.35 4105.82 2953.29 4085.66 2941.86C4065.51 2930.18 4042.45 2924.34 4016.47 2924.34C3987.33 2924.34 3962.56 2931.03 3942.17 2944.41C3921.77 2957.79 3905.14 2975.67 3892.27 2998.05C3880.13 3019.46 3871.03 3044.51 3864.96 3073.22C3859.13 3101.92 3856.22 3132.09 3856.22 3163.71C3856.22 3198.74 3859.38 3230.36 3865.69 3258.58C3872 3286.8 3881.96 3311.86 3895.55 3333.75C3908.66 3355.16 3925.17 3371.94 3945.08 3384.1C3964.99 3396.02 3988.79 3401.98 4016.47 3401.98C4042.45 3401.98 4065.88 3395.9 4086.76 3383.74C4107.64 3371.58 4124.63 3354.55 4137.74 3332.66Z" fill="#1A554F"/>
<path d="M4852.3 2930.18C4845.5 2930.42 4835.54 2931.88 4822.43 2934.56C4809.32 2937.24 4798.64 2941.25 4790.38 2946.6C4782.13 2952.2 4776.42 2963.75 4773.27 2981.27C4770.11 2998.78 4768.53 3020.19 4768.53 3045.49V3270.62C4768.53 3299.33 4762.58 3324.26 4750.69 3345.43C4738.79 3366.59 4723.13 3383.98 4703.7 3397.61C4684.52 3410.74 4664.25 3420.11 4642.88 3425.7C4621.76 3431.54 4601.49 3434.46 4582.06 3434.46C4550.98 3434.46 4523.31 3430.32 4499.03 3422.05C4474.75 3414.03 4454.35 3403.08 4437.84 3389.21C4421.57 3375.35 4409.31 3359.54 4401.06 3341.78C4392.8 3323.78 4388.67 3305.05 4388.67 3285.58V2979.44C4388.67 2970.93 4387.22 2963.87 4384.3 2958.28C4381.63 2952.44 4376.05 2947.09 4367.55 2942.22C4361.48 2938.82 4353.71 2936.14 4344.24 2934.19C4334.77 2932.01 4327 2930.67 4320.93 2930.18V2904.27H4536.17V2930.18C4529.38 2930.42 4520.76 2931.52 4510.32 2933.46C4500.12 2935.41 4492.59 2937.24 4487.74 2938.94C4479.48 2941.86 4473.9 2946.72 4470.98 2953.53C4468.31 2960.35 4466.98 2967.76 4466.98 2975.79V3261.87C4466.98 3275.73 4468.43 3290.33 4471.35 3305.65C4474.5 3320.74 4480.57 3334.84 4489.56 3347.98C4499.03 3361.36 4511.89 3372.31 4528.16 3380.82C4544.43 3389.33 4566.77 3393.59 4595.17 3393.59C4621.88 3393.59 4644.22 3389.33 4662.19 3380.82C4680.4 3372.31 4694.72 3361.12 4705.16 3347.25C4715.12 3334.11 4722.16 3320.37 4726.28 3306.02C4730.41 3291.67 4732.48 3277.19 4732.48 3262.6V3050.23C4732.48 3023.23 4730.53 3001.21 4726.65 2984.18C4722.76 2966.91 4717.06 2955.6 4709.53 2950.25C4701.03 2944.17 4689.38 2939.42 4674.57 2936.02C4660 2932.61 4648.83 2930.67 4641.06 2930.18V2904.27H4852.3V2930.18Z" fill="#1A554F"/>
<path d="M5289.7 3031.99C5289.7 3058.99 5284.35 3082.95 5273.67 3103.87C5263.23 3124.55 5248.66 3141.7 5229.97 3155.32C5211.52 3168.94 5191.24 3178.91 5169.15 3185.24C5147.05 3191.56 5123.62 3194.73 5098.86 3194.73H5040.95V3351.63C5040.95 3360.14 5042.29 3367.68 5044.96 3374.25C5047.87 3380.58 5053.7 3385.44 5062.44 3388.85C5066.81 3390.55 5074.46 3392.13 5085.38 3393.59C5096.55 3395.05 5106.75 3395.9 5115.98 3396.15V3422.05H4894.18V3396.15C4900.01 3395.66 4908.38 3394.81 4919.31 3393.59C4930.48 3392.38 4938.25 3390.79 4942.62 3388.85C4949.9 3385.69 4955.12 3381.06 4958.28 3374.98C4961.68 3368.9 4963.38 3361.12 4963.38 3351.63V2977.98C4963.38 2969.47 4962.16 2961.8 4959.73 2954.99C4957.31 2948.18 4951.6 2943.07 4942.62 2939.67C4933.39 2936.51 4924.16 2934.32 4914.94 2933.1C4905.96 2931.64 4898.19 2930.67 4891.63 2930.18V2904.27H5127.63C5175.7 2904.27 5214.67 2915.95 5244.54 2939.3C5274.64 2962.41 5289.7 2993.31 5289.7 3031.99ZM5178.98 3120.29C5187.24 3108.61 5192.7 3096.57 5195.37 3084.16C5198.04 3071.52 5199.38 3060.2 5199.38 3050.23C5199.38 3036.36 5197.68 3022.25 5194.28 3007.9C5191.12 2993.55 5185.54 2981.02 5177.52 2970.32C5169.03 2958.89 5157.86 2950.01 5144.02 2943.68C5130.18 2937.36 5112.94 2934.19 5092.3 2934.19H5040.95V3162.98H5078.1C5104.32 3162.98 5125.57 3158.97 5141.83 3150.94C5158.34 3142.67 5170.73 3132.45 5178.98 3120.29Z" fill="#1A554F"/>
</g>
<defs>
<filter id="filter0_d_467_338" x="221.305" y="1414.87" width="5652.39" height="1221.64" filterUnits="userSpaceOnUse" color-interpolation-filters="sRGB">
<feFlood flood-opacity="0" result="BackgroundImageFix"/>
<feColorMatrix in="SourceAlpha" type="matrix" values="0 0 0 0 0 0 0 0 0 0 0 0 0 0 0 0 0 0 127 0" result="hardAlpha"/>
<feOffset dy="4"/>
<feGaussianBlur stdDeviation="2"/>
<feComposite in2="hardAlpha" operator="out"/>
<feColorMatrix type="matrix" values="0 0 0 0 0 0 0 0 0 0 0 0 0 0 0 0 0 0 0.25 0"/>
<feBlend mode="normal" in2="BackgroundImageFix" result="effect1_dropShadow_467_338"/>
<feBlend mode="normal" in="SourceGraphic" in2="effect1_dropShadow_467_338" result="shape"/>
</filter>
<filter id="filter1_d_467_338" x="854.882" y="2891.87" width="4438.82" height="550.592" filterUnits="userSpaceOnUse" color-interpolation-filters="sRGB">
<feFlood flood-opacity="0" result="BackgroundImageFix"/>
<feColorMatrix in="SourceAlpha" type="matrix" values="0 0 0 0 0 0 0 0 0 0 0 0 0 0 0 0 0 0 127 0" result="hardAlpha"/>
<feOffset dy="4"/>
<feGaussianBlur stdDeviation="2"/>
<feComposite in2="hardAlpha" operator="out"/>
<feColorMatrix type="matrix" values="0 0 0 0 0 0 0 0 0 0 0 0 0 0 0 0 0 0 0.25 0"/>
<feBlend mode="normal" in2="BackgroundImageFix" result="effect1_dropShadow_467_338"/>
<feBlend mode="normal" in="SourceGraphic" in2="effect1_dropShadow_467_338" result="shape"/>
</filter>
</defs>
</svg>
